<?xml version="1.0" encoding="UTF-8"?>
<!DOCTYPE svg PUBLIC "-//W3C//DTD SVG 1.1//EN" "http://www.w3.org/Graphics/SVG/1.1/DTD/svg11.dtd">
<!-- Creator: CorelDRAW 2020 (64 Bit) -->
<svg xmlns="http://www.w3.org/2000/svg" xml:space="preserve" width="1820px" height="740px" version="1.1" style="shape-rendering:geometricPrecision; text-rendering:geometricPrecision; image-rendering:optimizeQuality; fill-rule:evenodd; clip-rule:evenodd"
viewBox="0 0 3189 1358.28"
 xmlns:xlink="http://www.w3.org/1999/xlink"
 xmlns:xodm="http://www.corel.com/coreldraw/odm/2003">
 <defs>
  <style type="text/css">
   <![CDATA[
    .fil0 {fill:#52658C}
    .fil1 {fill:#FEFEFE;fill-rule:nonzero}
    .fil2 {fill:#52658C;fill-rule:nonzero}
   ]]>
  </style>
 </defs>
 <g id="Camada_x0020_1">
  <metadata id="CorelCorpID_0Corel-Layer"/>
  <g id="_2600212306016">
   <path class="fil0" d="M268.75 151.84l1074.47 0c7,0 12.73,5.72 12.73,12.72l0 890.89c0,84 -68.73,152.72 -152.72,152.72l-921.75 0c-84,0 -152.73,-68.72 -152.73,-152.72l0 -763.62c0,-77 63,-139.99 140,-139.99z"/>
   <path class="fil1" d="M758.98 642.6l406.74 0.56c-3.4,144.15 -42.88,257.32 -119.02,339.12 -75.94,81.8 -179.09,122.8 -309.26,122.8 -128.09,0 -229.92,-34.95 -305.3,-104.66 -75.38,-69.72 -113.16,-163.23 -113.16,-280.55 0,-64.61 11.71,-126.01 34.95,-184.01 23.24,-58.19 56.48,-109.2 100.13,-153.03 41.37,-41.37 90.3,-72.92 146.98,-95.03 56.49,-21.91 117.88,-32.87 184.01,-32.87 77.46,0 145.09,15.49 203.09,46.48 57.81,31.17 108.06,78.78 150.38,143.01l-172.67 117.7c-20.22,-36.46 -45.35,-63.67 -75.57,-81.81 -30.04,-17.94 -65.18,-27.01 -105.42,-27.01 -67.83,0 -123.93,24.56 -168.14,73.49 -44.4,49.12 -66.5,111.09 -66.5,186.09 0,61.96 17.57,111.65 52.52,149.06 35.14,37.4 81.42,56.11 139.05,56.11 21.34,0 41.56,-2.46 60.64,-7.37 18.89,-5.1 36.46,-12.28 52.71,-21.92 14.54,-8.88 26.82,-20.02 37.22,-33.44 10.2,-13.41 18.51,-29.09 24.93,-47.23l-184.38 0 26.07 -165.49z"/>
   <path class="fil2" d="M1655.9 729.98l-343.33 0c2.14,38.29 15.31,68.15 39.51,89.44 24.19,21.28 56.81,31.85 97.85,31.85 51.3,0 90.2,-13.17 116.84,-39.51l43.49 85.45c-39.51,31.85 -98.31,47.78 -176.72,47.78 -73.19,0 -131.08,-21.44 -173.8,-64.47 -42.57,-42.88 -63.86,-102.91 -63.86,-179.78 0,-75.81 23.43,-137.21 70.14,-184.22 46.85,-47.02 102.9,-70.45 168.44,-70.45 69.68,0 125.57,20.83 167.69,62.48 42.11,41.65 63.24,94.64 63.24,158.96 0,13.78 -3.21,34.6 -9.49,62.47zm-338.74 -84.53l235.22 0c-7.81,-70.44 -46.56,-105.66 -116.23,-105.66 -63.86,0 -103.52,35.22 -118.99,105.66zm408.56 259.57l39.82 -89.59c33.54,26.96 71.36,40.43 113.47,40.43 43.65,0 65.39,-15.62 65.39,-46.7 0,-18.38 -6.58,-33.39 -19.75,-45.03 -13.17,-11.63 -38.59,-25.57 -76.57,-41.34 -82.85,-34.46 -124.19,-82.7 -124.19,-144.71 0,-41.66 15.77,-73.97 47.47,-97.25 31.7,-23.12 72.13,-34.76 121.44,-34.76 49.92,0 96.78,11.18 140.73,33.54l-32.16 86.83c-24.5,-20.83 -58.5,-31.24 -102.14,-31.24 -39.05,0 -58.65,15.62 -58.65,46.7 0,12.41 6.43,23.43 19.29,33.39 12.87,9.8 40.28,23.12 82.39,39.81 42.26,16.54 72.58,36.75 91.11,60.34 18.53,23.73 27.72,52.37 27.72,85.75 0,44.72 -16.54,79.79 -49.62,105.36 -32.92,25.57 -77.79,38.44 -134.6,38.44 -32.01,0 -57.73,-2.61 -76.87,-7.81 -19.3,-5.36 -44.11,-16.08 -74.28,-32.16zm853.89 -175.04l-343.33 0c2.14,38.29 15.31,68.15 39.51,89.44 24.19,21.28 56.81,31.85 97.85,31.85 51.3,0 90.2,-13.17 116.84,-39.51l43.49 85.45c-39.51,31.85 -98.31,47.78 -176.72,47.78 -73.19,0 -131.08,-21.44 -173.8,-64.47 -42.58,-42.88 -63.86,-102.91 -63.86,-179.78 0,-75.81 23.43,-137.21 70.13,-184.22 46.86,-47.02 102.91,-70.45 168.45,-70.45 69.68,0 125.57,20.83 167.69,62.48 42.11,41.65 63.24,94.64 63.24,158.96 0,13.78 -3.22,34.6 -9.49,62.47zm-338.74 -84.53l235.22 0c-7.81,-70.44 -46.56,-105.66 -116.23,-105.66 -63.86,0 -103.52,35.22 -118.99,105.66zm814.68 -152.52l-47.93 83.61c-26.34,-24.5 -61.56,-36.75 -105.82,-36.75 -42.42,0 -75.95,14.09 -100.61,42.42 -24.65,28.33 -36.9,67.53 -36.9,117.61 0,100.91 47.93,151.45 143.94,151.45 41.5,0 78.1,-13.78 109.8,-41.35l41.19 88.21c-32.61,20.36 -61.1,33.38 -85.45,38.74 -24.34,5.36 -53.13,8.12 -86.21,8.12 -74.27,0 -132.77,-21.59 -175.65,-64.93 -42.87,-43.19 -64.31,-103.37 -64.31,-180.24 0,-75.8 23.43,-137.06 70.44,-183.77 46.86,-46.7 110.87,-69.98 191.88,-69.98 55.89,0 104.44,15.62 145.63,46.86z"/>
   <path class="fil1" d="M1354.51 729.25l-41.64 0c2.01,36.03 14.03,68.6 42.49,91.96l0 113.29c-37.46,-10.2 -69.22,-28.43 -95.33,-54.72 -42.57,-42.88 -63.85,-102.91 -63.85,-179.78 0,-75.81 23.43,-137.21 70.13,-184.23 26.46,-26.53 55.84,-45.56 88.2,-57.09l0 110.84c-17.53,17.51 -29.89,42.58 -37.05,75.19l37.05 0 0 84.54z"/>
  </g>
 </g>
</svg>
